<?xml version="1.0" encoding="UTF-8"?>
<!DOCTYPE svg PUBLIC "-//W3C//DTD SVG 1.1//EN" "http://www.w3.org/Graphics/SVG/1.1/DTD/svg11.dtd">
<svg xmlns="http://www.w3.org/2000/svg" version="1.1" width="720px" height="131px" style="shape-rendering:geometricPrecision; text-rendering:geometricPrecision; image-rendering:optimizeQuality; fill-rule:evenodd; clip-rule:evenodd" xmlns:xlink="http://www.w3.org/1999/xlink">
<g><path style="opacity:1" fill="#fa4300" d="M 506.5,9.5 C 507.833,9.5 509.167,9.5 510.5,9.5C 510.667,45.8349 510.5,82.1682 510,118.5C 504.593,119.473 499.093,119.807 493.5,119.5C 493.333,87.1649 493.5,54.8316 494,22.5C 498.37,18.2978 502.537,13.9645 506.5,9.5 Z"/></g>
<g><path style="opacity:1" fill="#fa4200" d="M 531.5,9.5 C 532.5,9.5 533.5,9.5 534.5,9.5C 534.5,16.1667 534.5,22.8333 534.5,29.5C 529.156,29.666 523.823,29.4994 518.5,29C 517.941,28.2753 517.608,27.4419 517.5,26.5C 521.925,20.6605 526.591,14.9938 531.5,9.5 Z"/></g>
<g><path style="opacity:1" fill="#fa8900" d="M 235.5,13.5 C 236.552,13.3505 237.552,13.5172 238.5,14C 243,18.5 247.5,23 252,27.5C 252.667,47.1667 252.667,66.8333 252,86.5C 249.312,107.946 237.145,119.612 215.5,121.5C 187.268,117.763 175.101,101.763 179,73.5C 187.124,51.8498 202.624,43.3498 225.5,48C 224.251,52.8279 222.917,57.6612 221.5,62.5C 208.04,61.3345 199.206,67.0012 195,79.5C 193.876,94.2195 200.709,102.553 215.5,104.5C 225.922,103.24 232.422,97.5734 235,87.5C 235.5,62.8356 235.667,38.1689 235.5,13.5 Z"/></g>
<g><path style="opacity:1" fill="#fa8800" d="M 354.5,13.5 C 355.5,13.5 356.5,13.5 357.5,13.5C 357.5,30.8333 357.5,48.1667 357.5,65.5C 372.815,66.5041 381.481,59.5041 383.5,44.5C 389.167,44.5 394.833,44.5 400.5,44.5C 400.271,55.3688 396.271,64.5355 388.5,72C 394.835,77.1514 399.335,83.6514 402,91.5C 403.395,101.434 403.895,111.434 403.5,121.5C 397.907,121.807 392.407,121.473 387,120.5C 386.667,112.833 386.333,105.167 386,97.5C 380.267,85.5507 370.767,80.884 357.5,83.5C 357.5,96.1667 357.5,108.833 357.5,121.5C 352.167,121.5 346.833,121.5 341.5,121.5C 341.333,89.8316 341.5,58.1649 342,26.5C 346.37,22.2978 350.537,17.9645 354.5,13.5 Z"/></g>
<g><path style="opacity:1" fill="#fa4300" d="M 49.5,43.5 C 71.8922,41.597 86.3922,51.2636 93,72.5C 96.4992,96.0315 86.9992,111.198 64.5,118C 42.9113,120.964 28.078,112.464 20,92.5C 15.0725,66.9902 24.9058,50.6569 49.5,43.5 Z M 51.5,60.5 C 69.5216,60.0188 77.6882,68.6855 76,86.5C 70.0387,100.604 59.872,104.771 45.5,99C 36.0759,92.3918 33.2426,83.5585 37,72.5C 40.515,66.8106 45.3483,62.8106 51.5,60.5 Z"/></g>
<g><path style="opacity:1" fill="#fa4300" d="M 131.5,43.5 C 154.627,41.4939 169.461,51.4939 176,73.5C 176.5,88.4963 176.667,103.496 176.5,118.5C 170.833,118.5 165.167,118.5 159.5,118.5C 159.951,103.428 159.451,88.4283 158,73.5C 148.503,58.7716 136.837,56.7716 123,67.5C 122,69.1667 121,70.8333 120,72.5C 118.548,87.762 118.048,103.095 118.5,118.5C 112.5,118.5 106.5,118.5 100.5,118.5C 100.045,102.096 100.545,85.763 102,69.5C 107.646,56.0175 117.479,47.3508 131.5,43.5 Z"/></g>
<g><path style="opacity:1" fill="#fa4300" d="M 573.5,43.5 C 596.375,41.6807 611.208,51.6807 618,73.5C 618.5,88.4963 618.667,103.496 618.5,118.5C 612.5,118.5 606.5,118.5 600.5,118.5C 600.951,103.428 600.451,88.4283 599,73.5C 590.413,59.111 579.246,56.7777 565.5,66.5C 563.808,68.3586 562.308,70.3586 561,72.5C 559.548,87.762 559.048,103.095 559.5,118.5C 553.833,118.5 548.167,118.5 542.5,118.5C 542.333,102.83 542.5,87.1631 543,71.5C 547.959,56.3697 558.126,47.0364 573.5,43.5 Z"/></g>
<g><path style="opacity:1" fill="#fa4200" d="M 655.5,43.5 C 667.307,42.3566 677.974,45.1899 687.5,52C 691.682,56.015 695.682,60.1817 699.5,64.5C 695.015,69.4852 690.349,74.3186 685.5,79C 690.418,79.1948 695.251,79.6948 700,80.5C 699.99,100.181 690.49,112.681 671.5,118C 643.849,121.182 628.182,109.015 624.5,81.5C 625.902,61.2818 636.235,48.6151 655.5,43.5 Z M 657.5,60.5 C 664.093,59.815 670.093,61.315 675.5,65C 670.456,70.5078 665.456,76.0078 660.5,81.5C 668.167,82.1667 675.833,82.8333 683.5,83.5C 679.781,97.3653 670.781,103.199 656.5,101C 641.978,93.7186 638.478,82.8853 646,68.5C 649.482,65.1608 653.315,62.4942 657.5,60.5 Z"/></g>
<g><path style="opacity:1" fill="#fa4300" d="M 517.5,43.5 C 523.167,43.5 528.833,43.5 534.5,43.5C 534.5,68.5 534.5,93.5 534.5,118.5C 528.833,118.5 523.167,118.5 517.5,118.5C 517.5,93.5 517.5,68.5 517.5,43.5 Z"/></g>
<g><path style="opacity:1" fill="#fa8900" d="M 260.5,46.5 C 266.093,46.1934 271.593,46.5268 277,47.5C 277.802,59.0339 277.635,70.5339 276.5,82C 277.007,95.0059 283.674,102.506 296.5,104.5C 307.461,103.698 314.295,98.031 317,87.5C 317.5,73.8374 317.667,60.1707 317.5,46.5C 323.167,46.5 328.833,46.5 334.5,46.5C 334.667,60.504 334.5,74.504 334,88.5C 328.46,112.7 313.293,123.2 288.5,120C 274.406,116.238 265.239,107.405 261,93.5C 260.5,77.8369 260.333,62.1702 260.5,46.5 Z"/></g>
<g><path style="opacity:1" fill="#fa8900" d="M 440.5,46.5 C 461.245,45.6051 474.745,54.9384 481,74.5C 481.5,89.8297 481.667,105.163 481.5,120.5C 476.167,120.5 470.833,120.5 465.5,120.5C 465.932,105.775 465.432,91.108 464,76.5C 455.13,62.0813 443.796,59.7479 430,69.5C 420.566,83.8545 423.399,95.0211 438.5,103C 442.531,104.315 446.531,104.815 450.5,104.5C 452.138,109.717 453.138,115.05 453.5,120.5C 426.577,122.737 410.91,110.57 406.5,84C 408.817,63.1307 420.15,50.6307 440.5,46.5 Z"/></g>
</svg>
